<?xml version="1.0" encoding="iso-8859-1"?>
<!-- Uploaded to: SVG Repo, www.svgrepo.com, Generator: SVG Repo Mixer Tools -->
<svg height="800px" width="800px" version="1.1" id="Layer_1" xmlns="http://www.w3.org/2000/svg" xmlns:xlink="http://www.w3.org/1999/xlink" 
	 viewBox="0 0 431.924 431.924" xml:space="preserve">
<g transform="translate(0 -1020.36)" shape-rendering="auto" image-rendering="auto" color-rendering="auto" color-interpolation="sRGB">
	<path style="fill:#5A3392;" d="M375.458,1172.306c-1.837,0.197-3.548,1.025-4.844,2.342l-15.937,15.969
		c-1.482,1.465-2.334,3.449-2.375,5.531l-0.219,16.188h-5.812l-30-18.781c-1.268-0.818-2.741-1.262-4.25-1.279h-80.062
		c-4.394,0.053-7.923,3.637-7.906,8.031v19.938h-52.813l-18.312-14.281c-2.133-1.697-4.983-2.191-7.562-1.313L5.426,1252.743
		c-4.183,1.424-6.421,5.969-4.998,10.15c0.393,1.154,1.044,2.205,1.904,3.068l15.969,15.938c1.495,1.512,3.53,2.367,5.656,2.375
		h55.719c5.061,9.48,14.952,16.063,26.375,16.063c16.474,0,30-13.527,30-30c0-0.688-0.17-1.344-0.219-2.031h4.938l13.594,13.469
		c1.515,1.467,3.548,2.275,5.656,2.25l164.375,0.256c5.565,9.533,15.807,16.063,27.563,16.063c14.832,0,27.303-10.326,30.875-24.094
		h25.344c4.357-0.051,7.872-3.58,7.906-7.938l-0.032-22.406h-16.594v-12h16.562l-0.032-14.406h-16.531v-12h16.5v-7.906
		l13.719-13.719c3.072-3.176,2.987-8.242-0.189-11.313c-1.476-1.428-3.445-2.234-5.498-2.25h-47.719
		c-0.271-0.014-0.542-0.014-0.813,0L375.458,1172.306z"/>
	<path style="fill:#EE746C;" d="M379.583,1188.245h25.156l-2.346,2.377c-1.512,1.494-2.367,3.529-2.377,5.654l0.122,64h-17.344
		c-3.616-13.705-16.057-23.969-30.843-23.969c-17.578,0-32.031,14.42-32.031,32l-156.594-0.24l-13.719-13.469
		c-1.495-1.512-3.53-2.367-5.656-2.377h-14.188c-5.499-7.182-14.048-11.906-23.719-11.906c-15.791,0-28.756,12.461-29.813,28H27.263
		l-4.625-4.625l123.781-42.406l17.125,13.25c1.377,1.104,3.08,1.719,4.844,1.754h63.563c4.419,0.018,8.014-3.551,8.031-7.971
		c0-0.02,0-0.041,0-0.061v-19.938h69.688l30.094,18.781c1.29,0.779,2.774,1.18,4.281,1.152h15.938
		c4.394,0.018,7.979-3.514,8.031-7.906l0.242-20.783l11.344-11.342L379.583,1188.245z"/>
	<path style="fill:#29A3EC;" d="M105.927,1254.261c8.931,0,16.062,7.129,16.062,16.064c0,8.932-7.131,15.967-16.062,15.967
		c-8.931,0-15.938-7.035-15.938-15.967C89.989,1261.391,96.996,1254.261,105.927,1254.261z"/>
	<path style="fill:#3CDEF6;" d="M105.958,1262.268c4.466,0,8.031,3.563,8.031,8.031c0,4.465-3.568,7.986-8.031,7.986
		c-4.466,0-7.969-3.52-7.969-7.986C97.989,1265.831,101.493,1262.268,105.958,1262.268z"/>
	<path style="fill:#FB9761;" d="M74.552,1245.899l-51.906,17.781l4.625,4.625h48.969c0.629-9.252,5.535-17.318,12.688-22.406H74.552
		z M122.927,1245.899c2.552,1.801,4.942,3.828,6.844,6.313h14.188c2.126,0.008,4.161,0.863,5.656,2.375l13.719,13.469l156.594,0.256
		c0-8.703,3.54-16.619,9.25-22.406h-206.25L122.927,1245.899z M374.489,1245.899c3.896,3.957,6.856,8.854,8.312,14.375h17.344
		l-0.032-14.375H374.489L374.489,1245.899z"/>
	<path style="fill:#29A3EC;" d="M351.958,1252.245c8.931,0,16.062,7.129,16.062,16.064c0,8.932-7.131,15.967-16.062,15.967
		c-8.931,0-15.938-7.035-15.938-15.967C336.02,1259.376,343.027,1252.245,351.958,1252.245z"/>
	<path style="fill:#3CDEF6;" d="M351.989,1260.253c4.466,0,8.031,3.563,8.031,8.031c0,4.465-3.568,7.986-8.031,7.986
		c-4.466,0-7.969-3.52-7.969-7.986C344.02,1263.815,347.524,1260.253,351.989,1260.253z"/>
</g>
</svg>