<?xml version="1.0" encoding="iso-8859-1"?>
<!-- Uploaded to: SVG Repo, www.svgrepo.com, Generator: SVG Repo Mixer Tools -->
<svg version="1.1" id="Layer_1" xmlns="http://www.w3.org/2000/svg" xmlns:xlink="http://www.w3.org/1999/xlink" 
	 viewBox="0 0 512 512" xml:space="preserve">
<path style="fill:#FCBEC2;" d="M511.105,277.367C511.688,270.32,512,263.197,512,256C512,114.616,397.385,0,256,0
	C114.616,0,0,114.616,0,256c0,122.539,86.105,224.952,201.107,250.081L511.105,277.367z"/>
<path style="fill:#FB9DA4;" d="M511.105,277.367L267.13,33.391L256,338.365L144.696,449.67l56.411,56.411
	C218.793,509.945,237.155,512,256,512C390.189,512,500.247,408.752,511.105,277.367z"/>
<polygon style="fill:#616F6D;" points="244.87,33.391 244.87,66.783 256,77.913 267.13,66.783 267.13,33.391 "/>
<rect x="244.87" y="66.783" style="fill:#889391;" width="22.261" height="164.73"/>
<polygon style="fill:#394B48;" points="289.391,171.409 244.87,138.017 233.739,360.626 289.391,338.365 311.652,316.104 "/>
<polygon style="fill:#616F6D;" points="222.609,171.409 200.348,316.104 222.609,338.365 256,360.626 256,138.017 "/>
<polygon style="fill:#263230;" points="289.391,338.365 256,338.365 244.87,416.278 311.652,382.887 "/>
<polygon style="fill:#394B48;" points="222.609,338.365 200.348,382.887 256,416.278 256,338.365 "/>
<path style="fill:#F63341;" d="M311.652,382.887H256l-11.13,55.652h111.304l-11.13-22.261
	C345.043,397.836,330.094,382.887,311.652,382.887z"/>
<path style="fill:#F85C67;" d="M200.348,382.887c-18.442,0-33.391,14.95-33.391,33.391l-11.13,22.261H256v-55.652H200.348z"/>
<polygon style="fill:#394B48;" points="345.043,394.017 345.043,438.539 367.304,427.409 367.304,394.017 "/>
<g>
	<polygon style="fill:#263230;" points="367.304,427.409 256,427.409 244.87,438.539 256,449.67 367.304,449.67 	"/>
	<polygon style="fill:#263230;" points="144.696,394.017 144.696,427.409 166.957,438.539 166.957,394.017 	"/>
</g>
<rect x="144.696" y="427.409" style="fill:#394B48;" width="111.304" height="22.261"/>
<polygon style="fill:#F63341;" points="256,126.887 244.87,149.148 256,171.409 289.391,171.409 289.391,126.887 "/>
<rect x="222.609" y="126.887" style="fill:#F85C67;" width="33.391" height="44.522"/>
<polygon style="fill:#616F6D;" points="287.935,308.34 270.294,193.67 256,193.67 244.87,254.887 256,316.104 280.171,316.104 "/>
<polygon style="fill:#889391;" points="241.706,193.67 224.066,308.34 231.829,316.104 256,316.104 256,193.67 "/>
</svg>